<svg xmlns="http://www.w3.org/2000/svg" width="91" height="63.567" viewBox="0 0 91 63.567">
  <path id="Icon_metro-books" data-name="Icon metro-books" d="M21.112,8.571H5.22A2.656,2.656,0,0,0,2.571,11.22V69.489A2.656,2.656,0,0,0,5.22,72.138H21.112a2.656,2.656,0,0,0,2.649-2.649V11.22a2.656,2.656,0,0,0-2.649-2.649ZM18.463,24.463H7.869v-5.3H18.463ZM47.6,8.571H31.706a2.656,2.656,0,0,0-2.649,2.649V69.489a2.656,2.656,0,0,0,2.649,2.649H47.6a2.656,2.656,0,0,0,2.649-2.649V11.22A2.656,2.656,0,0,0,47.6,8.571ZM44.949,24.463H34.355v-5.3H44.949ZM65.9,12.667,51.705,19.818a2.657,2.657,0,0,0-1.174,3.557L74.367,70.681a2.656,2.656,0,0,0,3.557,1.174L92.116,64.7a2.656,2.656,0,0,0,1.174-3.557L69.454,13.841A2.656,2.656,0,0,0,65.9,12.667ZM79.381,69.489a2.649,2.649,0,1,1-2.649-2.649A2.649,2.649,0,0,1,79.381,69.489Z" transform="translate(-2.571 -8.571)" fill="#d65db1"/>
</svg>
