<svg xmlns="http://www.w3.org/2000/svg" width="91.631" height="92.047" viewBox="0 0 91.631 92.047">
  <path id="Icon_awesome-football-ball" data-name="Icon awesome-football-ball" d="M88.952,10.268a9.777,9.777,0,0,0-6.891-6.941A82.429,82.429,0,0,0,62.7.562l28.93,29.1a83.727,83.727,0,0,0-2.679-19.393ZM2.679,82.9A9.777,9.777,0,0,0,9.57,89.844,82.429,82.429,0,0,0,28.93,92.609L0,63.511A83.727,83.727,0,0,0,2.679,82.9ZM.776,51.671l39.941,40.2A58.832,58.832,0,0,0,90.873,41.5L50.914,1.3C26.436,4.905,4.951,23.333.776,51.671ZM59.394,28.733a1.478,1.478,0,0,1,2.088,0l2.088,2.1a1.5,1.5,0,0,1,0,2.1l-5.228,5.252,5.228,5.252a1.5,1.5,0,0,1,0,2.1l-2.088,2.1a1.478,1.478,0,0,1-2.088,0l-5.228-5.252-4.175,4.213,5.228,5.252a1.5,1.5,0,0,1,0,2.1l-2.088,2.1a1.478,1.478,0,0,1-2.088,0L45.815,50.78,41.64,54.974l5.228,5.252a1.5,1.5,0,0,1,0,2.1l-2.088,2.1a1.478,1.478,0,0,1-2.088,0l-5.228-5.252L32.237,64.42a1.478,1.478,0,0,1-2.088,0l-2.088-2.1a1.5,1.5,0,0,1,0-2.1l5.228-5.252-5.228-5.233a1.5,1.5,0,0,1,0-2.1l2.088-2.1a1.478,1.478,0,0,1,2.088,0L37.465,50.8,41.64,46.6l-5.228-5.252a1.5,1.5,0,0,1,0-2.1l2.088-2.1a1.478,1.478,0,0,1,2.088,0l5.228,5.252,4.175-4.194-5.228-5.252a1.5,1.5,0,0,1,0-2.1l2.088-2.1a1.478,1.478,0,0,1,2.088,0l5.228,5.252Z" transform="translate(0 -0.563)" fill="#d65db1"/>
</svg>
